<svg width="228" height="47" viewBox="0 0 228 47" fill="none" xmlns="http://www.w3.org/2000/svg">
<circle cx="22" cy="22" r="12" fill="#EDEDFE"/>
<circle cx="28" cy="30.6667" r="5.5" fill="#EDEDFE" stroke="#171717"/>
<path d="M39.8807 17.6771V15.7879H51.1378V17.6771H46.5994V30.3333H44.4119V17.6771H39.8807ZM52.3221 30.3333V19.4243H54.3746V21.1572H54.4883C54.6871 20.5701 55.0375 20.1084 55.5394 19.7723C56.046 19.4314 56.619 19.2609 57.2582 19.2609C57.3907 19.2609 57.547 19.2656 57.7269 19.2751C57.9116 19.2846 58.056 19.2964 58.1602 19.3106V21.3419C58.0749 21.3182 57.9234 21.2922 57.7056 21.2637C57.4878 21.2306 57.27 21.214 57.0522 21.214C56.5503 21.214 56.1029 21.3206 55.7099 21.5336C55.3216 21.742 55.0138 22.0332 54.7866 22.4072C54.5593 22.7765 54.4457 23.1979 54.4457 23.6714V30.3333H52.3221ZM63.0749 30.5748C62.3836 30.5748 61.7586 30.447 61.1999 30.1913C60.6412 29.9309 60.1985 29.5545 59.8718 29.062C59.5498 28.5696 59.3888 27.9659 59.3888 27.251C59.3888 26.6354 59.5072 26.1288 59.744 25.7311C59.9807 25.3333 60.3003 25.0185 60.7028 24.7865C61.1052 24.5545 61.555 24.3793 62.0522 24.2609C62.5494 24.1425 63.056 24.0526 63.5721 23.991C64.2255 23.9153 64.7558 23.8537 65.163 23.8064C65.5702 23.7543 65.8661 23.6714 66.0508 23.5578C66.2354 23.4441 66.3278 23.2595 66.3278 23.0038V22.9541C66.3278 22.3338 66.1526 21.8532 65.8022 21.5123C65.4566 21.1714 64.9405 21.001 64.2539 21.001C63.5389 21.001 62.9755 21.1596 62.5636 21.4768C62.1564 21.7893 61.8746 22.1373 61.7184 22.5208L59.7227 22.0663C59.9594 21.4034 60.305 20.8684 60.7596 20.4612C61.2189 20.0493 61.7468 19.751 62.3434 19.5663C62.94 19.3769 63.5674 19.2822 64.2255 19.2822C64.6611 19.2822 65.1228 19.3343 65.6104 19.4385C66.1029 19.5379 66.5621 19.7225 66.9883 19.9924C67.4192 20.2623 67.7719 20.6482 68.0465 21.1501C68.3211 21.6473 68.4585 22.2936 68.4585 23.089V30.3333H66.3846V28.8419H66.2994C66.1621 29.1165 65.9561 29.3864 65.6815 29.6515C65.4068 29.9167 65.0541 30.1368 64.6232 30.312C64.1924 30.4872 63.6763 30.5748 63.0749 30.5748ZM63.5366 28.8703C64.1237 28.8703 64.6256 28.7543 65.0423 28.5223C65.4637 28.2903 65.7833 27.9872 66.0011 27.6132C66.2236 27.2344 66.3349 26.8296 66.3349 26.3987V24.9924C66.2591 25.0682 66.1123 25.1392 65.8945 25.2055C65.6815 25.2671 65.4376 25.3215 65.163 25.3689C64.8884 25.4115 64.6209 25.4517 64.3604 25.4896C64.1 25.5227 63.8822 25.5511 63.707 25.5748C63.2951 25.6269 62.9187 25.7145 62.5778 25.8376C62.2416 25.9607 61.9717 26.1383 61.7681 26.3703C61.5692 26.5975 61.4698 26.9006 61.4698 27.2794C61.4698 27.8049 61.6639 28.2027 62.0522 28.4725C62.4405 28.7377 62.9353 28.8703 63.5366 28.8703ZM73.4105 23.8561V30.3333H71.2869V19.4243H73.3253V21.1998H73.4602C73.7112 20.6222 74.1042 20.1582 74.6392 19.8078C75.179 19.4574 75.8584 19.2822 76.6776 19.2822C77.4209 19.2822 78.072 19.4385 78.6307 19.751C79.1894 20.0587 79.6226 20.518 79.9304 21.1288C80.2382 21.7396 80.392 22.4948 80.392 23.3944V30.3333H78.2685V23.6501C78.2685 22.8594 78.0625 22.2415 77.6506 21.7964C77.2386 21.3466 76.6728 21.1217 75.9531 21.1217C75.4607 21.1217 75.0227 21.2282 74.6392 21.4413C74.2604 21.6544 73.9598 21.9669 73.7372 22.3788C73.5194 22.786 73.4105 23.2784 73.4105 23.8561ZM91.4148 22.0876L89.4901 22.4285C89.4096 22.1823 89.2817 21.9479 89.1065 21.7254C88.9361 21.5029 88.7041 21.3206 88.4105 21.1785C88.117 21.0365 87.75 20.9654 87.3097 20.9654C86.7083 20.9654 86.2064 21.1004 85.804 21.3703C85.4015 21.6354 85.2003 21.9787 85.2003 22.4001C85.2003 22.7647 85.3352 23.0582 85.6051 23.2808C85.875 23.5033 86.3106 23.6856 86.9119 23.8277L88.6449 24.2254C89.6487 24.4574 90.3968 24.8149 90.8892 25.2978C91.3816 25.7808 91.6278 26.4082 91.6278 27.1799C91.6278 27.8333 91.4384 28.4157 91.0597 28.9271C90.6856 29.4337 90.1624 29.8314 89.4901 30.1203C88.8224 30.4091 88.0483 30.5535 87.1676 30.5535C85.946 30.5535 84.9493 30.2931 84.1776 29.7723C83.4058 29.2467 82.9323 28.501 82.7571 27.535L84.8097 27.2225C84.9375 27.7576 85.2003 28.1624 85.598 28.437C85.9957 28.7069 86.5142 28.8419 87.1534 28.8419C87.8494 28.8419 88.4058 28.6975 88.8224 28.4086C89.2391 28.1151 89.4474 27.7576 89.4474 27.3362C89.4474 26.9953 89.3196 26.7088 89.0639 26.4768C88.813 26.2448 88.4271 26.0696 87.9062 25.9512L86.0597 25.5464C85.0417 25.3144 84.2888 24.9451 83.8011 24.4385C83.3182 23.9318 83.0767 23.2903 83.0767 22.5137C83.0767 21.8698 83.2566 21.3064 83.6165 20.8234C83.9763 20.3404 84.4735 19.964 85.108 19.6941C85.7424 19.4195 86.4692 19.2822 87.2884 19.2822C88.4673 19.2822 89.3954 19.5379 90.0724 20.0493C90.7495 20.5559 91.197 21.2353 91.4148 22.0876ZM97.1374 30.5748C96.4461 30.5748 95.8211 30.447 95.2624 30.1913C94.7037 29.9309 94.261 29.5545 93.9343 29.062C93.6123 28.5696 93.4513 27.9659 93.4513 27.251C93.4513 26.6354 93.5697 26.1288 93.8065 25.7311C94.0432 25.3333 94.3628 25.0185 94.7653 24.7865C95.1677 24.5545 95.6175 24.3793 96.1147 24.2609C96.6119 24.1425 97.1185 24.0526 97.6346 23.991C98.288 23.9153 98.8183 23.8537 99.2255 23.8064C99.6327 23.7543 99.9286 23.6714 100.113 23.5578C100.298 23.4441 100.39 23.2595 100.39 23.0038V22.9541C100.39 22.3338 100.215 21.8532 99.8647 21.5123C99.5191 21.1714 99.003 21.001 98.3164 21.001C97.6014 21.001 97.038 21.1596 96.6261 21.4768C96.2189 21.7893 95.9371 22.1373 95.7809 22.5208L93.7852 22.0663C94.0219 21.4034 94.3675 20.8684 94.8221 20.4612C95.2814 20.0493 95.8093 19.751 96.4059 19.5663C97.0025 19.3769 97.6299 19.2822 98.288 19.2822C98.7236 19.2822 99.1853 19.3343 99.6729 19.4385C100.165 19.5379 100.625 19.7225 101.051 19.9924C101.482 20.2623 101.834 20.6482 102.109 21.1501C102.384 21.6473 102.521 22.2936 102.521 23.089V30.3333H100.447V28.8419H100.362C100.225 29.1165 100.019 29.3864 99.744 29.6515C99.4693 29.9167 99.1166 30.1368 98.6857 30.312C98.2549 30.4872 97.7388 30.5748 97.1374 30.5748ZM97.5991 28.8703C98.1862 28.8703 98.6881 28.7543 99.1048 28.5223C99.5262 28.2903 99.8458 27.9872 100.064 27.6132C100.286 27.2344 100.397 26.8296 100.397 26.3987V24.9924C100.322 25.0682 100.175 25.1392 99.957 25.2055C99.744 25.2671 99.5001 25.3215 99.2255 25.3689C98.9509 25.4115 98.6834 25.4517 98.4229 25.4896C98.1625 25.5227 97.9447 25.5511 97.7695 25.5748C97.3576 25.6269 96.9812 25.7145 96.6403 25.8376C96.3041 25.9607 96.0342 26.1383 95.8306 26.3703C95.6317 26.5975 95.5323 26.9006 95.5323 27.2794C95.5323 27.8049 95.7264 28.2027 96.1147 28.4725C96.503 28.7377 96.9978 28.8703 97.5991 28.8703ZM109.945 30.5535C108.889 30.5535 107.98 30.3144 107.217 29.8362C106.46 29.3532 105.877 28.688 105.47 27.8404C105.063 26.9929 104.859 26.0223 104.859 24.9285C104.859 23.8206 105.068 22.8428 105.484 21.9953C105.901 21.143 106.488 20.4778 107.246 19.9995C108.003 19.5213 108.896 19.2822 109.923 19.2822C110.752 19.2822 111.491 19.4361 112.139 19.7439C112.788 20.0469 113.311 20.473 113.709 21.0223C114.111 21.5715 114.35 22.2131 114.426 22.947H112.359C112.246 22.4356 111.985 21.9953 111.578 21.626C111.176 21.2566 110.636 21.072 109.959 21.072C109.367 21.072 108.848 21.2282 108.403 21.5407C107.963 21.8485 107.62 22.2888 107.374 22.8618C107.127 23.4299 107.004 24.1023 107.004 24.8788C107.004 25.6743 107.125 26.3608 107.366 26.9385C107.608 27.5161 107.949 27.9636 108.389 28.2808C108.834 28.598 109.357 28.7566 109.959 28.7566C110.361 28.7566 110.726 28.6832 111.053 28.5365C111.384 28.385 111.661 28.1695 111.884 27.8902C112.111 27.6108 112.269 27.2746 112.359 26.8816H114.426C114.35 27.5871 114.121 28.2169 113.737 28.7708C113.354 29.3248 112.84 29.7604 112.196 30.0777C111.557 30.3949 110.806 30.5535 109.945 30.5535ZM121.789 19.4243V21.1288H115.831V19.4243H121.789ZM117.429 16.8106H119.552V27.1302C119.552 27.5422 119.614 27.8523 119.737 28.0606C119.86 28.2642 120.019 28.4039 120.213 28.4797C120.412 28.5507 120.627 28.5862 120.859 28.5862C121.029 28.5862 121.179 28.5743 121.306 28.5507C121.434 28.527 121.534 28.5081 121.605 28.4939L121.988 30.2481C121.865 30.2955 121.69 30.3428 121.463 30.3902C121.235 30.4422 120.951 30.4707 120.61 30.4754C120.052 30.4849 119.531 30.3854 119.048 30.1771C118.565 29.9688 118.174 29.6468 117.876 29.2112C117.578 28.7756 117.429 28.2287 117.429 27.5706V16.8106ZM124.138 30.3333V19.4243H126.262V30.3333H124.138ZM125.211 17.741C124.842 17.741 124.524 17.6179 124.259 17.3717C123.999 17.1207 123.869 16.8225 123.869 16.4768C123.869 16.1264 123.999 15.8281 124.259 15.5819C124.524 15.331 124.842 15.2055 125.211 15.2055C125.58 15.2055 125.895 15.331 126.156 15.5819C126.421 15.8281 126.553 16.1264 126.553 16.4768C126.553 16.8225 126.421 17.1207 126.156 17.3717C125.895 17.6179 125.58 17.741 125.211 17.741ZM133.714 30.5535C132.691 30.5535 131.799 30.3191 131.037 29.8504C130.274 29.3816 129.682 28.7259 129.261 27.8831C128.84 27.0403 128.629 26.0554 128.629 24.9285C128.629 23.7969 128.84 22.8073 129.261 21.9598C129.682 21.1122 130.274 20.4541 131.037 19.9853C131.799 19.5166 132.691 19.2822 133.714 19.2822C134.737 19.2822 135.629 19.5166 136.392 19.9853C137.154 20.4541 137.746 21.1122 138.167 21.9598C138.589 22.8073 138.799 23.7969 138.799 24.9285C138.799 26.0554 138.589 27.0403 138.167 27.8831C137.746 28.7259 137.154 29.3816 136.392 29.8504C135.629 30.3191 134.737 30.5535 133.714 30.5535ZM133.721 28.7708C134.384 28.7708 134.933 28.5957 135.369 28.2453C135.805 27.8949 136.127 27.4285 136.335 26.8461C136.548 26.2637 136.654 25.6222 136.654 24.9214C136.654 24.2254 136.548 23.5862 136.335 23.0038C136.127 22.4167 135.805 21.9456 135.369 21.5904C134.933 21.2353 134.384 21.0578 133.721 21.0578C133.054 21.0578 132.5 21.2353 132.059 21.5904C131.624 21.9456 131.299 22.4167 131.086 23.0038C130.878 23.5862 130.774 24.2254 130.774 24.9214C130.774 25.6222 130.878 26.2637 131.086 26.8461C131.299 27.4285 131.624 27.8949 132.059 28.2453C132.5 28.5957 133.054 28.7708 133.721 28.7708ZM143.293 23.8561V30.3333H141.17V19.4243H143.208V21.1998H143.343C143.594 20.6222 143.987 20.1582 144.522 19.8078C145.062 19.4574 145.741 19.2822 146.56 19.2822C147.304 19.2822 147.955 19.4385 148.513 19.751C149.072 20.0587 149.505 20.518 149.813 21.1288C150.121 21.7396 150.275 22.4948 150.275 23.3944V30.3333H148.151V23.6501C148.151 22.8594 147.945 22.2415 147.533 21.7964C147.121 21.3466 146.556 21.1217 145.836 21.1217C145.344 21.1217 144.906 21.2282 144.522 21.4413C144.143 21.6544 143.843 21.9669 143.62 22.3788C143.402 22.786 143.293 23.2784 143.293 23.8561ZM161.298 22.0876L159.373 22.4285C159.292 22.1823 159.165 21.9479 158.989 21.7254C158.819 21.5029 158.587 21.3206 158.293 21.1785C158 21.0365 157.633 20.9654 157.192 20.9654C156.591 20.9654 156.089 21.1004 155.687 21.3703C155.284 21.6354 155.083 21.9787 155.083 22.4001C155.083 22.7647 155.218 23.0582 155.488 23.2808C155.758 23.5033 156.193 23.6856 156.795 23.8277L158.528 24.2254C159.531 24.4574 160.28 24.8149 160.772 25.2978C161.264 25.7808 161.511 26.4082 161.511 27.1799C161.511 27.8333 161.321 28.4157 160.942 28.9271C160.568 29.4337 160.045 29.8314 159.373 30.1203C158.705 30.4091 157.931 30.5535 157.05 30.5535C155.829 30.5535 154.832 30.2931 154.06 29.7723C153.289 29.2467 152.815 28.501 152.64 27.535L154.692 27.2225C154.82 27.7576 155.083 28.1624 155.481 28.437C155.879 28.7069 156.397 28.8419 157.036 28.8419C157.732 28.8419 158.289 28.6975 158.705 28.4086C159.122 28.1151 159.33 27.7576 159.33 27.3362C159.33 26.9953 159.202 26.7088 158.947 26.4768C158.696 26.2448 158.31 26.0696 157.789 25.9512L155.942 25.5464C154.924 25.3144 154.172 24.9451 153.684 24.4385C153.201 23.9318 152.96 23.2903 152.96 22.5137C152.96 21.8698 153.139 21.3064 153.499 20.8234C153.859 20.3404 154.356 19.964 154.991 19.6941C155.625 19.4195 156.352 19.2822 157.171 19.2822C158.35 19.2822 159.278 19.5379 159.955 20.0493C160.632 20.5559 161.08 21.2353 161.298 22.0876ZM166.18 30.3333L162.146 15.7879H164.455L167.288 27.0521H167.423L170.371 15.7879H172.658L175.605 27.0592H175.74L178.567 15.7879H180.882L176.841 30.3333H174.632L171.571 19.4385H171.457L168.396 30.3333H166.18ZM186.34 30.5535C185.265 30.5535 184.34 30.3239 183.563 29.8646C182.791 29.4006 182.195 28.7495 181.773 27.9115C181.357 27.0687 181.148 26.0814 181.148 24.9498C181.148 23.8324 181.357 22.8475 181.773 21.9953C182.195 21.143 182.782 20.4778 183.535 19.9995C184.292 19.5213 185.178 19.2822 186.191 19.2822C186.807 19.2822 187.403 19.384 187.981 19.5876C188.558 19.7912 189.077 20.1108 189.536 20.5464C189.996 20.982 190.358 21.5478 190.623 22.2439C190.888 22.9351 191.021 23.7756 191.021 24.7652V25.518H182.349V23.9271H188.94C188.94 23.3684 188.826 22.8736 188.599 22.4427C188.371 22.0071 188.052 21.6638 187.64 21.4129C187.233 21.1619 186.754 21.0365 186.205 21.0365C185.609 21.0365 185.088 21.1832 184.643 21.4768C184.202 21.7656 183.862 22.1444 183.62 22.6132C183.383 23.0772 183.265 23.5814 183.265 24.126V25.3689C183.265 26.098 183.393 26.7183 183.648 27.2297C183.909 27.741 184.271 28.1316 184.735 28.4015C185.199 28.6667 185.741 28.7993 186.362 28.7993C186.764 28.7993 187.131 28.7424 187.462 28.6288C187.794 28.5104 188.08 28.3352 188.322 28.1032C188.563 27.8712 188.748 27.5848 188.876 27.2439L190.886 27.6061C190.725 28.1979 190.436 28.7164 190.019 29.1615C189.607 29.6018 189.089 29.9451 188.464 30.1913C187.844 30.4328 187.136 30.5535 186.34 30.5535ZM193.547 30.3333V15.7879H195.671V21.1927H195.799C195.922 20.9654 196.099 20.7027 196.331 20.4044C196.563 20.1061 196.885 19.8457 197.297 19.6231C197.709 19.3958 198.254 19.2822 198.931 19.2822C199.811 19.2822 200.597 19.5047 201.289 19.9498C201.98 20.3949 202.522 21.0365 202.915 21.8745C203.313 22.7126 203.512 23.7211 203.512 24.9001C203.512 26.0791 203.315 27.09 202.922 27.9328C202.529 28.7708 201.989 29.4172 201.303 29.8717C200.616 30.3215 199.833 30.5464 198.952 30.5464C198.289 30.5464 197.747 30.4351 197.326 30.2126C196.909 29.9901 196.582 29.7297 196.346 29.4314C196.109 29.1331 195.926 28.8679 195.799 28.6359H195.621V30.3333H193.547ZM195.628 24.8788C195.628 25.6458 195.739 26.3182 195.962 26.8958C196.185 27.4735 196.507 27.9257 196.928 28.2524C197.349 28.5743 197.865 28.7353 198.476 28.7353C199.111 28.7353 199.641 28.5672 200.067 28.2311C200.493 27.8902 200.815 27.4285 201.033 26.8461C201.256 26.2637 201.367 25.608 201.367 24.8788C201.367 24.1591 201.258 23.5128 201.04 22.9399C200.827 22.367 200.505 21.9148 200.074 21.5833C199.648 21.2519 199.115 21.0862 198.476 21.0862C197.861 21.0862 197.34 21.2448 196.914 21.562C196.492 21.8793 196.173 22.322 195.955 22.8902C195.737 23.4583 195.628 24.1212 195.628 24.8788ZM210.932 30.5322C209.956 30.5322 209.085 30.3641 208.318 30.0279C207.556 29.6918 206.952 29.2254 206.507 28.6288C206.067 28.0275 205.83 27.3314 205.797 26.5407H208.027C208.055 26.9716 208.2 27.3457 208.46 27.6629C208.725 27.9754 209.071 28.2169 209.497 28.3873C209.923 28.5578 210.397 28.643 210.918 28.643C211.491 28.643 211.997 28.5436 212.438 28.3447C212.883 28.1458 213.231 27.8689 213.482 27.5137C213.732 27.1539 213.858 26.7396 213.858 26.2708C213.858 25.7832 213.732 25.3547 213.482 24.9853C213.235 24.6113 212.873 24.3177 212.395 24.1047C211.921 23.8916 211.348 23.785 210.676 23.785H209.447V21.9953H210.676C211.216 21.9953 211.689 21.8982 212.097 21.7041C212.509 21.51 212.83 21.2401 213.062 20.8944C213.295 20.544 213.411 20.1345 213.411 19.6657C213.411 19.2159 213.309 18.8253 213.105 18.4939C212.906 18.1577 212.622 17.8949 212.253 17.7055C211.888 17.5161 211.457 17.4214 210.96 17.4214C210.487 17.4214 210.044 17.509 209.632 17.6842C209.225 17.8547 208.893 18.1009 208.638 18.4228C208.382 18.7401 208.245 19.1212 208.226 19.5663H206.102C206.126 18.7803 206.358 18.089 206.798 17.4924C207.243 16.8958 207.83 16.4295 208.56 16.0933C209.289 15.7571 210.098 15.589 210.989 15.589C211.921 15.589 212.726 15.7713 213.403 16.1359C214.085 16.4957 214.611 16.9763 214.98 17.5777C215.354 18.179 215.539 18.8371 215.534 19.5521C215.539 20.3665 215.312 21.0578 214.852 21.626C214.398 22.1941 213.792 22.5753 213.034 22.7694V22.8831C214 23.0298 214.748 23.4134 215.278 24.0336C215.813 24.6539 216.079 25.4233 216.074 26.3419C216.079 27.1421 215.856 27.8594 215.406 28.4939C214.961 29.1283 214.353 29.6279 213.581 29.9924C212.809 30.3523 211.926 30.5322 210.932 30.5322Z" fill="white"/>
</svg>
