<svg width="27" height="26" viewBox="0 0 27 26" fill="none" xmlns="http://www.w3.org/2000/svg">
<path fill-rule="evenodd" clip-rule="evenodd" d="M13.7701 2.66001C8.12577 2.66001 3.55012 7.23566 3.55012 12.88C3.55012 18.5244 8.12577 23.1 13.7701 23.1C19.4145 23.1 23.9901 18.5244 23.9901 12.88C23.9901 7.23566 19.4145 2.66001 13.7701 2.66001ZM0.995117 12.88C0.995117 5.82457 6.71468 0.105011 13.7701 0.105011C20.8256 0.105011 26.5451 5.82457 26.5451 12.88C26.5451 19.9354 20.8256 25.655 13.7701 25.655C6.71468 25.655 0.995117 19.9354 0.995117 12.88ZM18.5059 9.42168C19.0048 9.92058 19.0048 10.7294 18.5059 11.2283L13.3959 16.3383C12.8971 16.8372 12.0882 16.8372 11.5893 16.3383L9.03429 13.7833C8.53539 13.2844 8.53539 12.4756 9.03429 11.9767C9.53318 11.4778 10.3421 11.4778 10.8409 11.9767L12.4926 13.6284L16.6993 9.42168C17.1982 8.92279 18.0071 8.92279 18.5059 9.42168Z" fill="#017E35"/>
</svg>
